<svg id="Layer_1" data-name="Layer 1" xmlns="http://www.w3.org/2000/svg" xmlns:xlink="http://www.w3.org/1999/xlink" viewBox="0 0 1524.72 205"><defs><style>.cls-1{fill:url(#linear-gradient);}.cls-2{fill:url(#linear-gradient-2);}.cls-3{fill:url(#linear-gradient-3);}.cls-4{fill:url(#linear-gradient-4);}.cls-5{fill:url(#linear-gradient-5);}.cls-6{fill:url(#linear-gradient-6);}.cls-7{fill:url(#linear-gradient-7);}.cls-8{fill:url(#linear-gradient-8);}.cls-9{fill:url(#linear-gradient-9);}.cls-10{fill:url(#linear-gradient-10);}.cls-11{fill:url(#linear-gradient-11);}.cls-12{fill:url(#linear-gradient-12);}.cls-13{fill:url(#linear-gradient-13);}.cls-14{fill:url(#linear-gradient-14);}.cls-15{fill:url(#linear-gradient-15);}.cls-16{fill:url(#linear-gradient-16);}.cls-17{fill:url(#linear-gradient-17);}.cls-18{fill:url(#linear-gradient-18);}.cls-19{fill:url(#linear-gradient-19);}.cls-20{fill:url(#linear-gradient-20);}.cls-21{fill:url(#linear-gradient-21);}.cls-22{fill:url(#linear-gradient-22);}.cls-23{fill:url(#linear-gradient-23);}.cls-24{fill:url(#linear-gradient-24);}.cls-25{fill:url(#linear-gradient-25);}.cls-26{fill:url(#linear-gradient-26);}.cls-27{fill:url(#linear-gradient-27);}.cls-28{fill:url(#linear-gradient-28);}.cls-29{fill:url(#linear-gradient-29);}.cls-30{fill:url(#linear-gradient-30);}.cls-31{fill:url(#linear-gradient-31);}.cls-32{fill:url(#linear-gradient-32);}.cls-33{fill:url(#linear-gradient-33);}.cls-34{fill:url(#linear-gradient-34);}.cls-35{fill:url(#linear-gradient-35);}.cls-36{fill:url(#linear-gradient-36);}.cls-37{fill:url(#linear-gradient-37);}.cls-38{fill:url(#linear-gradient-38);}.cls-39{fill:url(#linear-gradient-39);}.cls-40{fill:url(#linear-gradient-40);}.cls-41{fill:url(#linear-gradient-41);}.cls-42{fill:url(#linear-gradient-42);}.cls-43{fill:url(#linear-gradient-43);}.cls-44{fill:url(#linear-gradient-44);}.cls-45{fill:url(#linear-gradient-45);}.cls-46{fill:url(#linear-gradient-46);}.cls-47{fill:url(#linear-gradient-47);}.cls-48{fill:url(#linear-gradient-48);}.cls-49{fill:url(#linear-gradient-49);}.cls-50{fill:url(#linear-gradient-50);}.cls-51{fill:url(#linear-gradient-51);}.cls-52{fill:url(#linear-gradient-52);}.cls-53{fill:url(#linear-gradient-53);}.cls-54{fill:url(#linear-gradient-54);}.cls-55{fill:url(#linear-gradient-55);}.cls-56{fill:url(#linear-gradient-56);}.cls-57{fill:url(#linear-gradient-57);}.cls-58{fill:url(#linear-gradient-58);}.cls-59{fill:url(#linear-gradient-59);}.cls-60{fill:url(#linear-gradient-60);}.cls-61{fill:url(#linear-gradient-61);}.cls-62{fill:url(#linear-gradient-62);}.cls-63{fill:url(#linear-gradient-63);}.cls-64{fill:url(#linear-gradient-64);}.cls-65{fill:url(#linear-gradient-65);}.cls-66{fill:url(#linear-gradient-66);}.cls-67{fill:url(#linear-gradient-67);}.cls-68{fill:url(#linear-gradient-68);}.cls-69{fill:url(#linear-gradient-69);}.cls-70{fill:url(#linear-gradient-70);}.cls-71{fill:url(#linear-gradient-71);}.cls-72{fill:url(#linear-gradient-72);}.cls-73{fill:url(#linear-gradient-73);}.cls-74{fill:url(#linear-gradient-74);}.cls-75{fill:url(#linear-gradient-75);}.cls-76{fill:url(#linear-gradient-76);}.cls-77{fill:url(#linear-gradient-77);}.cls-78{fill:url(#linear-gradient-78);}.cls-79{fill:url(#linear-gradient-79);}.cls-80{fill:url(#linear-gradient-80);}.cls-81{fill:url(#linear-gradient-81);}.cls-82{fill:url(#linear-gradient-82);}.cls-83{fill:url(#linear-gradient-83);}.cls-84{fill:url(#linear-gradient-84);}.cls-85{fill:url(#linear-gradient-85);}.cls-86{fill:url(#linear-gradient-86);}</style><linearGradient id="linear-gradient" x1="73.41" y1="-13.24" x2="76.42" y2="164.67" gradientUnits="userSpaceOnUse"><stop offset="0" stop-color="#f6871f"/><stop offset="1" stop-color="#ed193e"/></linearGradient><linearGradient id="linear-gradient-2" x1="128.62" y1="-14.17" x2="131.62" y2="163.74" xlink:href="#linear-gradient"/><linearGradient id="linear-gradient-3" x1="102.55" y1="-13.73" x2="105.55" y2="164.18" xlink:href="#linear-gradient"/><linearGradient id="linear-gradient-4" x1="99.15" y1="-13.68" x2="102.16" y2="164.24" xlink:href="#linear-gradient"/><linearGradient id="linear-gradient-5" x1="150.31" y1="-14.54" x2="153.31" y2="163.37" xlink:href="#linear-gradient"/><linearGradient id="linear-gradient-6" x1="291.46" y1="24.82" x2="290.02" y2="240.33" xlink:href="#linear-gradient"/><linearGradient id="linear-gradient-7" x1="368.98" y1="25.33" x2="367.54" y2="240.85" xlink:href="#linear-gradient"/><linearGradient id="linear-gradient-8" x1="451.46" y1="25.88" x2="450.02" y2="241.4" xlink:href="#linear-gradient"/><linearGradient id="linear-gradient-9" x1="532.26" y1="26.42" x2="530.82" y2="241.94" xlink:href="#linear-gradient"/><linearGradient id="linear-gradient-10" x1="598.65" y1="26.87" x2="597.22" y2="242.38" xlink:href="#linear-gradient"/><linearGradient id="linear-gradient-11" x1="682.1" y1="27.42" x2="680.66" y2="242.93" xlink:href="#linear-gradient"/><linearGradient id="linear-gradient-12" x1="801" y1="28.21" x2="799.57" y2="243.73" xlink:href="#linear-gradient"/><linearGradient id="linear-gradient-13" x1="875.12" y1="28.71" x2="873.68" y2="244.22" xlink:href="#linear-gradient"/><linearGradient id="linear-gradient-14" x1="949.57" y1="29.21" x2="948.14" y2="244.72" xlink:href="#linear-gradient"/><linearGradient id="linear-gradient-15" x1="1015.78" y1="29.65" x2="1014.34" y2="245.16" xlink:href="#linear-gradient"/><linearGradient id="linear-gradient-16" x1="1093.63" y1="30.17" x2="1092.2" y2="245.68" xlink:href="#linear-gradient"/><linearGradient id="linear-gradient-17" x1="1158.26" y1="30.6" x2="1156.82" y2="246.11" xlink:href="#linear-gradient"/><linearGradient id="linear-gradient-18" x1="1230.71" y1="31.08" x2="1229.27" y2="246.59" xlink:href="#linear-gradient"/><linearGradient id="linear-gradient-19" x1="1277.98" y1="31.39" x2="1276.54" y2="246.91" xlink:href="#linear-gradient"/><linearGradient id="linear-gradient-20" x1="1339.19" y1="31.8" x2="1337.75" y2="247.31" xlink:href="#linear-gradient"/><linearGradient id="linear-gradient-21" x1="1418.72" y1="32.33" x2="1417.28" y2="247.84" xlink:href="#linear-gradient"/><linearGradient id="linear-gradient-22" x1="1498.26" y1="32.86" x2="1496.82" y2="248.38" xlink:href="#linear-gradient"/><linearGradient id="linear-gradient-23" x1="269.72" y1="24.67" x2="268.28" y2="240.18" xlink:href="#linear-gradient"/><linearGradient id="linear-gradient-24" x1="292.57" y1="24.82" x2="291.13" y2="240.34" xlink:href="#linear-gradient"/><linearGradient id="linear-gradient-25" x1="322.46" y1="25.02" x2="321.03" y2="240.54" xlink:href="#linear-gradient"/><linearGradient id="linear-gradient-26" x1="342.25" y1="25.16" x2="340.82" y2="240.67" xlink:href="#linear-gradient"/><linearGradient id="linear-gradient-27" x1="358.36" y1="25.26" x2="356.92" y2="240.78" xlink:href="#linear-gradient"/><linearGradient id="linear-gradient-28" x1="373.5" y1="25.36" x2="372.07" y2="240.88" xlink:href="#linear-gradient"/><linearGradient id="linear-gradient-29" x1="392.19" y1="25.49" x2="390.76" y2="241" xlink:href="#linear-gradient"/><linearGradient id="linear-gradient-30" x1="422.74" y1="25.69" x2="421.31" y2="241.2" xlink:href="#linear-gradient"/><linearGradient id="linear-gradient-31" x1="442.84" y1="25.83" x2="441.41" y2="241.34" xlink:href="#linear-gradient"/><linearGradient id="linear-gradient-32" x1="465.56" y1="25.98" x2="464.13" y2="241.49" xlink:href="#linear-gradient"/><linearGradient id="linear-gradient-33" x1="489.38" y1="26.14" x2="487.95" y2="241.65" xlink:href="#linear-gradient"/><linearGradient id="linear-gradient-34" x1="511.63" y1="26.29" x2="510.19" y2="241.8" xlink:href="#linear-gradient"/><linearGradient id="linear-gradient-35" x1="532.58" y1="26.43" x2="531.15" y2="241.94" xlink:href="#linear-gradient"/><linearGradient id="linear-gradient-36" x1="548.86" y1="26.53" x2="547.42" y2="242.05" xlink:href="#linear-gradient"/><linearGradient id="linear-gradient-37" x1="562.82" y1="26.63" x2="561.39" y2="242.14" xlink:href="#linear-gradient"/><linearGradient id="linear-gradient-38" x1="579.89" y1="26.74" x2="578.45" y2="242.25" xlink:href="#linear-gradient"/><linearGradient id="linear-gradient-39" x1="593.01" y1="26.83" x2="591.57" y2="242.34" xlink:href="#linear-gradient"/><linearGradient id="linear-gradient-40" x1="621.87" y1="27.02" x2="620.43" y2="242.53" xlink:href="#linear-gradient"/><linearGradient id="linear-gradient-41" x1="644.71" y1="27.17" x2="643.28" y2="242.68" xlink:href="#linear-gradient"/><linearGradient id="linear-gradient-42" x1="673.59" y1="27.37" x2="672.15" y2="242.88" xlink:href="#linear-gradient"/><linearGradient id="linear-gradient-43" x1="687.48" y1="27.46" x2="686.05" y2="242.97" xlink:href="#linear-gradient"/><linearGradient id="linear-gradient-44" x1="702.99" y1="27.56" x2="701.56" y2="243.07" xlink:href="#linear-gradient"/><linearGradient id="linear-gradient-45" x1="724.12" y1="27.7" x2="722.69" y2="243.21" xlink:href="#linear-gradient"/><linearGradient id="linear-gradient-46" x1="742.94" y1="27.83" x2="741.5" y2="243.34" xlink:href="#linear-gradient"/><linearGradient id="linear-gradient-47" x1="771.37" y1="28.02" x2="769.94" y2="243.53" xlink:href="#linear-gradient"/><linearGradient id="linear-gradient-48" x1="789.36" y1="28.14" x2="787.92" y2="243.65" xlink:href="#linear-gradient"/><linearGradient id="linear-gradient-49" x1="810.73" y1="28.28" x2="809.29" y2="243.79" xlink:href="#linear-gradient"/><linearGradient id="linear-gradient-50" x1="831" y1="28.41" x2="829.56" y2="243.93" xlink:href="#linear-gradient"/><linearGradient id="linear-gradient-51" x1="849.11" y1="28.54" x2="847.68" y2="244.05" xlink:href="#linear-gradient"/><linearGradient id="linear-gradient-52" x1="862.27" y1="28.62" x2="860.83" y2="244.14" xlink:href="#linear-gradient"/><linearGradient id="linear-gradient-53" x1="878.54" y1="28.73" x2="877.11" y2="244.24" xlink:href="#linear-gradient"/><linearGradient id="linear-gradient-54" x1="898.81" y1="28.87" x2="897.37" y2="244.38" xlink:href="#linear-gradient"/><linearGradient id="linear-gradient-55" x1="916.21" y1="28.98" x2="914.77" y2="244.49" xlink:href="#linear-gradient"/><linearGradient id="linear-gradient-56" x1="933.57" y1="29.1" x2="932.14" y2="244.61" xlink:href="#linear-gradient"/><linearGradient id="linear-gradient-57" x1="947.01" y1="29.19" x2="945.58" y2="244.7" xlink:href="#linear-gradient"/><linearGradient id="linear-gradient-58" x1="975.87" y1="29.38" x2="974.44" y2="244.89" xlink:href="#linear-gradient"/><linearGradient id="linear-gradient-59" x1="998.72" y1="29.53" x2="997.29" y2="245.04" xlink:href="#linear-gradient"/><linearGradient id="linear-gradient-60" x1="1028.62" y1="29.73" x2="1027.18" y2="245.24" xlink:href="#linear-gradient"/><linearGradient id="linear-gradient-61" x1="1048.41" y1="29.86" x2="1046.97" y2="245.38" xlink:href="#linear-gradient"/><linearGradient id="linear-gradient-62" x1="1064.51" y1="29.97" x2="1063.08" y2="245.48" xlink:href="#linear-gradient"/><linearGradient id="linear-gradient-63" x1="1079.66" y1="30.07" x2="1078.22" y2="245.58" xlink:href="#linear-gradient"/><linearGradient id="linear-gradient-64" x1="1098.35" y1="30.2" x2="1096.91" y2="245.71" xlink:href="#linear-gradient"/><linearGradient id="linear-gradient-65" x1="1128.83" y1="30.4" x2="1127.4" y2="245.91" xlink:href="#linear-gradient"/><linearGradient id="linear-gradient-66" x1="1148.49" y1="30.53" x2="1147.05" y2="246.04" xlink:href="#linear-gradient"/><linearGradient id="linear-gradient-67" x1="1166.87" y1="30.65" x2="1165.43" y2="246.17" xlink:href="#linear-gradient"/><linearGradient id="linear-gradient-68" x1="1185.77" y1="30.78" x2="1184.33" y2="246.29" xlink:href="#linear-gradient"/><linearGradient id="linear-gradient-69" x1="1206.04" y1="30.91" x2="1204.6" y2="246.43" xlink:href="#linear-gradient"/><linearGradient id="linear-gradient-70" x1="1225.28" y1="31.04" x2="1223.84" y2="246.56" xlink:href="#linear-gradient"/><linearGradient id="linear-gradient-71" x1="1244.1" y1="31.17" x2="1242.66" y2="246.68" xlink:href="#linear-gradient"/><linearGradient id="linear-gradient-72" x1="1258.14" y1="31.26" x2="1256.71" y2="246.77" xlink:href="#linear-gradient"/><linearGradient id="linear-gradient-73" x1="1273.62" y1="31.37" x2="1272.18" y2="246.88" xlink:href="#linear-gradient"/><linearGradient id="linear-gradient-74" x1="1304.18" y1="31.57" x2="1302.74" y2="247.08" xlink:href="#linear-gradient"/><linearGradient id="linear-gradient-75" x1="1322.99" y1="31.69" x2="1321.55" y2="247.21" xlink:href="#linear-gradient"/><linearGradient id="linear-gradient-76" x1="1341.11" y1="31.82" x2="1339.67" y2="247.33" xlink:href="#linear-gradient"/><linearGradient id="linear-gradient-77" x1="1358.28" y1="31.93" x2="1356.84" y2="247.44" xlink:href="#linear-gradient"/><linearGradient id="linear-gradient-78" x1="1375.47" y1="32.04" x2="1374.04" y2="247.56" xlink:href="#linear-gradient"/><linearGradient id="linear-gradient-79" x1="1389.52" y1="32.14" x2="1388.08" y2="247.65" xlink:href="#linear-gradient"/><linearGradient id="linear-gradient-80" x1="1406.04" y1="32.25" x2="1404.61" y2="247.76" xlink:href="#linear-gradient"/><linearGradient id="linear-gradient-81" x1="1427.42" y1="32.39" x2="1425.98" y2="247.9" xlink:href="#linear-gradient"/><linearGradient id="linear-gradient-82" x1="1446.69" y1="32.52" x2="1445.25" y2="248.03" xlink:href="#linear-gradient"/><linearGradient id="linear-gradient-83" x1="1465.9" y1="32.65" x2="1464.47" y2="248.16" xlink:href="#linear-gradient"/><linearGradient id="linear-gradient-84" x1="1482.18" y1="32.76" x2="1480.74" y2="248.27" xlink:href="#linear-gradient"/><linearGradient id="linear-gradient-85" x1="1498.08" y1="32.86" x2="1496.64" y2="248.37" xlink:href="#linear-gradient"/><linearGradient id="linear-gradient-86" x1="1515.92" y1="32.98" x2="1514.49" y2="248.49" xlink:href="#linear-gradient"/></defs><title>Ashroe-Illustrator</title><path class="cls-1" d="M102.9,95.28l-.09-.72a109,109,0,0,0-2.76-14.64A107.86,107.86,0,0,0,87.89,51q-2.06-3.38-4.35-6.61t-4.87-6.25A101.27,101.27,0,0,0,67.56,26.79a102.38,102.38,0,0,0-12.17-9.12,93.36,93.36,0,0,0-9.56,5.91A109.33,109.33,0,0,1,61,34.41a113.69,113.69,0,0,1,10.4,10q2.43,2.69,4.69,5.53c1.5,1.9,3,3.83,4.34,5.82a103.47,103.47,0,0,1,13.09,26,101.4,101.4,0,0,1,3.6,14.27,104.41,104.41,0,0,1,1.45,14.71,106,106,0,0,1-9.86,47.38c-.39,1-.91,1.84-1.36,2.76l-1.41,2.74c-1,1.8-2.08,3.54-3.11,5.31s-2.28,3.42-3.43,5.13-2.51,3.27-3.75,4.91-2.7,3.12-4,4.69-2.9,2.94-4.35,4.41c-1,.91-2,1.81-3,2.7l.25.1c1-.85,2-1.69,3-2.56,1.49-1.44,3-2.85,4.48-4.31s2.87-3,4.26-4.53,2.7-3.16,4-4.78,2.54-3.3,3.75-5,2.36-3.43,3.46-5.21l1.6-2.69c.52-.9,1.11-1.78,1.57-2.72a105.71,105.71,0,0,0,9.39-23.3,103.84,103.84,0,0,0,2.94-15.33q.56-4.83.69-9.7A110.75,110.75,0,0,0,102.9,95.28Z"/><path class="cls-2" d="M114,152.85a102.51,102.51,0,0,1-6.4-52.49,103.84,103.84,0,0,1,2.6-12.95c.64-2.11,1.23-4.22,1.89-6.31L114.42,75c.86-2,1.82-4,2.71-6,.42-1,1-1.94,1.51-2.9l1.57-2.87.77-1.44.88-1.39,1.75-2.76c1.1-1.87,2.48-3.57,3.74-5.34a106.88,106.88,0,0,1,30.49-27.6c-1.42-1-2.86-2-4.31-2.94l-.79-.51-1.14-.73-2.19-1.3c-.26-.16-.52-.31-.79-.47a107.43,107.43,0,0,0-28.34,28.53c-1.29,2-2.65,3.89-3.75,6l-1.74,3.08-.86,1.53-.76,1.6-1.5,3.19c-.49,1.07-1,2.11-1.42,3.22-.83,2.19-1.71,4.37-2.49,6.58a103.17,103.17,0,0,0-4.93,22.1q-.3,2.64-.47,5.28a107.64,107.64,0,0,0,.58,20.68,109.94,109.94,0,0,0,9.48,33A112.83,112.83,0,0,0,140,190.06l.17-.07A102.07,102.07,0,0,1,114,152.85Z"/><circle class="cls-3" cx="103.26" cy="28.74" r="17.5"/><path class="cls-4" d="M101.09,0a101.09,101.09,0,1,0,32.33,196.9q4.22-1.42,8.26-3.2A101.17,101.17,0,0,0,176.84,168c2-2.24,3.87-4.57,5.64-7A101.1,101.1,0,0,0,101.09,0Zm80.4,151.21a91.45,91.45,0,0,1-5.54,8,95.08,95.08,0,0,1-42.27,30.93,91.48,91.48,0,0,1-9.09,2.82,94.94,94.94,0,1,1,56.9-41.71Z"/><path class="cls-5" d="M178.07,205l-44.64-8.1-8.83-4a91.48,91.48,0,0,0,9.09-2.82l8,3.61A101.17,101.17,0,0,0,176.84,168l-.89-8.87a91.45,91.45,0,0,0,5.54-8l1,9.85Z"/><path class="cls-6" d="M282.22,52.17H299l23.43,103.61H311.23l-5.42-23.91H275.36l-5.42,23.91H258.78ZM290.5,64.6l-13.07,57.7h26.14Z"/><path class="cls-7" d="M395.39,135.85q0,22.32-26.94,22.32t-26.94-22.32V122.3h11.16v14.19a10.78,10.78,0,0,0,4,8.93q4,3.19,11.8,3.19t11.79-3.19a10.53,10.53,0,0,0,4-8.69A26.17,26.17,0,0,0,383,128a20.05,20.05,0,0,0-4.86-6.93L350.12,93.61A28.91,28.91,0,0,1,343.34,84a33,33,0,0,1-1.83-11.88q0-10.68,6.61-16.5t20-5.82q25.66,0,25.67,22.32V85.64H382.64V71.46q0-5.74-3.75-8.93t-11.24-3.19q-7.5,0-11.24,3.19a10.9,10.9,0,0,0-3.75,8.77,27.45,27.45,0,0,0,1.12,8.77,17.38,17.38,0,0,0,4.94,6.7l28.53,27.42a31.4,31.4,0,0,1,6.38,9.8A34.38,34.38,0,0,1,395.39,135.85Z"/><path class="cls-8" d="M435.24,155.78H424.08V52.17h11.16V98.39h31.4V52.17H477.8V155.78H466.64V108h-31.4Z"/><path class="cls-9" d="M520.83,155.78H509.67V52.17h4.78L519.08,64q5.1-14.19,16.26-14.19,19,0,19,20.72V80.86H543.63v-11q0-10.52-8.77-10.52-5.26,0-9.64,6.06t-4.38,17.54Z"/><path class="cls-10" d="M625.24,72.09v63.76q0,10.68-6.77,16.5t-20.25,5.82q-13.47,0-20.32-5.82T571,135.85V72.09q0-10.68,6.78-16.5t20.24-5.82q13.47,0,20.32,5.82T625.24,72.09Zm-11.16,63.76V72.09q0-12.75-15.94-12.75T582.2,72.09v63.76q0,12.76,15.94,12.75T614.08,135.85Z"/><path class="cls-11" d="M665.89,155.78H654.73V52.17h11.16V98.39h31.4V52.17h11.16V155.78H697.29V108h-31.4Z"/><path class="cls-12" d="M824,155.78H777V52.17h45.43v9.57H788.14V98.39H816V108H788.14v38.26H824Z"/><path class="cls-13" d="M859.08,155.78H847.92V52.17h4.78l4,10.36q7.65-12.75,21.2-12.75,23.43,0,23.43,22.32v83.68H890.16V72.09q0-6.06-2.63-9.41t-9.64-3.34q-7,0-12.91,5.42t-5.9,10.52Z"/><path class="cls-14" d="M929.21,52.17h35.07v9.57H940.37v76.35a12,12,0,0,0,2.31,7.49,7.74,7.74,0,0,0,6.54,3,7.61,7.61,0,0,0,6.46-2.95,12.2,12.2,0,0,0,2.23-7.57v-19h11.16v18.33q0,10-5.34,15.38t-14.42,5.34q-9.09,0-14.59-5.34t-5.5-15.38Z"/><path class="cls-15" d="M1030.43,135.85v-8.77h11.16v8.77q0,10.68-6.54,16.5t-19.61,5.82q-13.07,0-19.77-5.82t-6.7-16.5V72.09q0-10.68,6.54-16.5t19.61-5.82q13.07,0,19.77,5.82t6.7,16.5v35.07h-41.44v28.69q0,12.76,15.14,12.75T1030.43,135.85Zm-30.28-63.76V97.6h30.28V72.09q0-12.75-15.14-12.75T1000.14,72.09Z"/><path class="cls-16" d="M1082.23,155.78h-11.16V52.17h4.78l4.62,11.8q5.1-14.19,16.26-14.19,19,0,19,20.72V80.86H1105v-11q0-10.52-8.77-10.52-5.26,0-9.64,6.06t-4.38,17.54Z"/><path class="cls-17" d="M1144.4,155.78h-11.16V52.17h24.07q12.43,0,18.89,5.9t6.46,16.42v27.1q0,10.68-6.38,16.5t-19,5.82H1144.4Zm27.1-54.2V74.48q0-6.06-3.66-9.4t-10.52-3.35H1144.4v52.6h12.91Q1171.5,114.33,1171.5,101.58Z"/><path class="cls-18" d="M1219.32,155.78h-11.16V52.17h4.78l4.62,11.8q5.1-14.19,16.26-14.19,19,0,19,20.72V80.86h-10.68v-11q0-10.52-8.77-10.52-5.26,0-9.64,6.06t-4.38,17.54Z"/><path class="cls-19" d="M1283.08,155.78h-11.16V52.17h11.16Z"/><path class="cls-20" d="M1365.64,135.85q0,22.32-26.94,22.32t-26.94-22.32V122.3h11.16v14.19a10.78,10.78,0,0,0,4,8.93q4,3.19,11.79,3.19t11.8-3.19a10.54,10.54,0,0,0,4-8.69,26.17,26.17,0,0,0-1.2-8.77,20,20,0,0,0-4.86-6.93l-28.05-27.42A28.83,28.83,0,0,1,1313.6,84a33,33,0,0,1-1.84-11.88q0-10.68,6.62-16.5t20-5.82q25.66,0,25.66,22.32V85.64h-11.16V71.46q0-5.74-3.75-8.93t-11.24-3.19q-7.49,0-11.24,3.19a10.9,10.9,0,0,0-3.74,8.77,27.46,27.46,0,0,0,1.11,8.77,17.41,17.41,0,0,0,4.94,6.7l28.53,27.42a31.4,31.4,0,0,1,6.38,9.8A34.32,34.32,0,0,1,1365.64,135.85Z"/><path class="cls-21" d="M1433.38,135.85v-8.77h11.16v8.77q0,10.68-6.54,16.5t-19.61,5.82q-13.07,0-19.77-5.82t-6.7-16.5V72.09q0-10.68,6.54-16.5t19.61-5.82q13.07,0,19.77,5.82t6.7,16.5v35.07H1403.1v28.69q0,12.76,15.14,12.75T1433.38,135.85ZM1403.1,72.09V97.6h30.28V72.09q0-12.75-15.14-12.75T1403.1,72.09Z"/><path class="cls-22" d="M1524.72,135.85q0,22.32-26.94,22.32t-26.94-22.32V122.3H1482v14.19a10.78,10.78,0,0,0,4,8.93q4,3.19,11.79,3.19t11.8-3.19a10.54,10.54,0,0,0,4-8.69,26.17,26.17,0,0,0-1.2-8.77,20,20,0,0,0-4.86-6.93l-28.05-27.42a28.83,28.83,0,0,1-6.77-9.64,33,33,0,0,1-1.84-11.88q0-10.68,6.62-16.5t20-5.82q25.66,0,25.66,22.32V85.64H1512V71.46q0-5.74-3.75-8.93T1497,59.34q-7.49,0-11.24,3.19A10.9,10.9,0,0,0,1482,71.3a27.46,27.46,0,0,0,1.11,8.77,17.41,17.41,0,0,0,4.94,6.7l28.53,27.42A31.4,31.4,0,0,1,1523,124,34.32,34.32,0,0,1,1524.72,135.85Z"/><path class="cls-23" d="M278.48,186.92,274,200.21h-1.48l-3.89-11.33-3.91,11.33h-1.46l-4.48-13.29h1.44l3.83,11.43,4-11.43h1.31l3.91,11.48,3.89-11.48Z"/><path class="cls-24" d="M296.14,199v1.21h-9.4V186.92h9.11v1.21h-7.71v4.73H295v1.2h-6.87V199Z"/><path class="cls-25" d="M326.9,196.66c0,2.26-1.67,3.55-5,3.55H315.8V186.92h5.73c3,0,4.67,1.25,4.67,3.42a3.08,3.08,0,0,1-2,3A3.17,3.17,0,0,1,326.9,196.66Zm-9.7-8.58v4.82h4.23c2.13,0,3.36-.82,3.36-2.41s-1.23-2.41-3.36-2.41Zm8.29,8.47c0-1.73-1.27-2.49-3.61-2.49H317.2v5h4.69C324.23,199.05,325.5,198.29,325.5,196.55Z"/><path class="cls-26" d="M335.69,194.53v-7.61h1.41v7.55c0,3.15,1.48,4.59,4.06,4.59s4.08-1.44,4.08-4.59v-7.55h1.37v7.61c0,3.81-2.05,5.79-5.45,5.79S335.69,198.35,335.69,194.53Z"/><path class="cls-27" d="M356.53,186.92h1.4v13.29h-1.4Z"/><path class="cls-28" d="M368,186.92h1.4V199h7.44v1.21H368Z"/><path class="cls-29" d="M384.83,186.92h5.41c4.25,0,7.12,2.73,7.12,6.64s-2.87,6.64-7.12,6.64h-5.41ZM390.17,199c3.53,0,5.81-2.24,5.81-5.43s-2.28-5.43-5.81-5.43h-3.93V199Z"/><path class="cls-30" d="M415.7,193.57a6.67,6.67,0,0,1,7-6.76,6.43,6.43,0,0,1,4.86,1.94l-.89.89a5.27,5.27,0,0,0-3.93-1.58,5.51,5.51,0,1,0,0,11,5.22,5.22,0,0,0,3.93-1.59l.89.89a6.46,6.46,0,0,1-4.88,2A6.67,6.67,0,0,1,415.7,193.57Z"/><path class="cls-31" d="M434.75,193.57a7,7,0,1,1,7,6.76A6.69,6.69,0,0,1,434.75,193.57Zm12.54,0a5.58,5.58,0,1,0-5.56,5.5A5.38,5.38,0,0,0,447.3,193.57Z"/><path class="cls-32" d="M471.35,186.92v13.29H470V189.58l-5.22,8.94h-.66l-5.22-8.88v10.57h-1.35V186.92h1.16l5.77,9.85,5.71-9.85Z"/><path class="cls-33" d="M495.17,186.92v13.29h-1.35V189.58l-5.22,8.94h-.66l-5.22-8.88v10.57h-1.35V186.92h1.16l5.77,9.85,5.71-9.85Z"/><path class="cls-34" d="M505.08,194.53v-7.61h1.4v7.55c0,3.15,1.48,4.59,4.06,4.59s4.08-1.44,4.08-4.59v-7.55H516v7.61c0,3.81-2,5.79-5.45,5.79S505.08,198.35,505.08,194.53Z"/><path class="cls-35" d="M537,186.92v13.29h-1.16l-8.54-10.78v10.78h-1.41V186.92h1.16l8.56,10.78V186.92Z"/><path class="cls-36" d="M547,186.92h1.41v13.29H547Z"/><path class="cls-37" d="M561,188.14h-4.67v-1.21h10.74v1.21h-4.67v12.07H561Z"/><path class="cls-38" d="M579.52,195.62v4.59h-1.38v-4.59l-5.32-8.69h1.5l4.56,7.46,4.56-7.46h1.4Z"/><path class="cls-39" d="M590.87,191.18a1,1,0,0,1,1-1,1,1,0,0,1,1,1,1,1,0,0,1-1,1A1,1,0,0,1,590.87,191.18Zm2,8.09a3.14,3.14,0,0,1-.27,1.1l-.8,2.62h-.91l.65-2.75a1,1,0,0,1-.68-1,1,1,0,1,1,2,0Z"/><path class="cls-40" d="M630.65,186.92l-4.48,13.29h-1.48l-3.89-11.33-3.91,11.33h-1.46l-4.48-13.29h1.44l3.83,11.43,4-11.43h1.31l3.91,11.48,3.89-11.48Z"/><path class="cls-41" d="M648.3,199v1.21h-9.4V186.92H648v1.21h-7.71v4.73h6.87v1.2h-6.87V199Z"/><path class="cls-42" d="M669.37,188.14v5.22h6.87v1.21h-6.87v5.64H668V186.92h9.11v1.21Z"/><path class="cls-43" d="M685.67,186.92h1.41v13.29h-1.41Z"/><path class="cls-44" d="M706.46,193.57h1.35v5.07a7.32,7.32,0,0,1-4.88,1.69,6.76,6.76,0,1,1,0-13.52,6.55,6.55,0,0,1,4.93,1.92l-.87.89a5.61,5.61,0,1,0-4,9.45,5.76,5.76,0,0,0,3.47-1Z"/><path class="cls-45" d="M728.57,186.92v13.29h-1.39v-6.13h-8.31v6.13h-1.41V186.92h1.41v5.92h8.31v-5.92Z"/><path class="cls-46" d="M741.17,188.14H736.5v-1.21h10.74v1.21h-4.67v12.07h-1.41Z"/><path class="cls-47" d="M765.85,186.92h1.41V199h7.44v1.21h-8.85Z"/><path class="cls-48" d="M781.28,193.57a7,7,0,1,1,7,6.76A6.69,6.69,0,0,1,781.28,193.57Zm12.54,0a5.58,5.58,0,1,0-5.56,5.5A5.38,5.38,0,0,0,793.82,193.57Z"/><path class="cls-49" d="M815.18,186.92v13.29H814l-8.54-10.78v10.78h-1.41V186.92h1.16l8.56,10.78V186.92Z"/><path class="cls-50" d="M834.6,199v1.21h-9.4V186.92h9.11v1.21h-7.71v4.73h6.87v1.2h-6.87V199Z"/><path class="cls-51" d="M843.59,186.92H845V199h7.44v1.21h-8.85Z"/><path class="cls-52" d="M860.46,186.92h1.41v13.29h-1.41Z"/><path class="cls-53" d="M883,186.92v13.29h-1.16l-8.54-10.78v10.78h-1.41V186.92H873l8.56,10.78V186.92Z"/><path class="cls-54" d="M902.41,199v1.21H893V186.92h9.11v1.21h-7.71v4.73h6.87v1.2h-6.87V199Z"/><path class="cls-55" d="M910.14,198.59l.55-1.08a6.53,6.53,0,0,0,4.39,1.61c2.48,0,3.57-1,3.57-2.35,0-3.64-8.18-1.41-8.18-6.32,0-2,1.52-3.64,4.9-3.64a7.5,7.5,0,0,1,4.12,1.18l-.47,1.12a6.83,6.83,0,0,0-3.64-1.1c-2.43,0-3.51,1.08-3.51,2.41,0,3.64,8.18,1.44,8.18,6.28,0,2-1.56,3.63-5,3.63A7.2,7.2,0,0,1,910.14,198.59Z"/><path class="cls-56" d="M927.5,198.59l.55-1.08a6.53,6.53,0,0,0,4.39,1.61c2.48,0,3.57-1,3.57-2.35,0-3.64-8.18-1.41-8.18-6.32,0-2,1.52-3.64,4.9-3.64a7.5,7.5,0,0,1,4.12,1.18l-.47,1.12a6.83,6.83,0,0,0-3.64-1.1c-2.43,0-3.51,1.08-3.51,2.41,0,3.64,8.18,1.44,8.18,6.28,0,2-1.56,3.63-5,3.63A7.2,7.2,0,0,1,927.5,198.59Z"/><path class="cls-57" d="M944.89,191.18a1,1,0,0,1,1-1,1,1,0,0,1,1,1,1,1,0,0,1-1,1A1,1,0,0,1,944.89,191.18Zm2,8.09a3.14,3.14,0,0,1-.27,1.1l-.8,2.62h-.91l.65-2.75a1,1,0,0,1-.68-1,1,1,0,1,1,2,0Z"/><path class="cls-58" d="M984.68,186.92l-4.48,13.29h-1.48l-3.89-11.33-3.91,11.33h-1.46L965,186.92h1.44l3.83,11.43,4-11.43h1.31l3.91,11.48,3.89-11.48Z"/><path class="cls-59" d="M1002.33,199v1.21h-9.4V186.92H1002v1.21h-7.71v4.73h6.87v1.2h-6.87V199Z"/><path class="cls-60" d="M1033.09,196.66c0,2.26-1.67,3.55-5,3.55H1022V186.92h5.73c3,0,4.67,1.25,4.67,3.42a3.09,3.09,0,0,1-2,3A3.17,3.17,0,0,1,1033.09,196.66Zm-9.7-8.58v4.82h4.23c2.13,0,3.36-.82,3.36-2.41s-1.23-2.41-3.36-2.41Zm8.29,8.47c0-1.73-1.27-2.49-3.61-2.49h-4.69v5h4.69C1030.42,199.05,1031.69,198.29,1031.69,196.55Z"/><path class="cls-61" d="M1041.88,194.53v-7.61h1.4v7.55c0,3.15,1.48,4.59,4.06,4.59s4.08-1.44,4.08-4.59v-7.55h1.37v7.61c0,3.81-2,5.79-5.45,5.79S1041.88,198.35,1041.88,194.53Z"/><path class="cls-62" d="M1062.72,186.92h1.41v13.29h-1.41Z"/><path class="cls-63" d="M1074.15,186.92h1.41V199H1083v1.21h-8.85Z"/><path class="cls-64" d="M1091,186.92h5.41c4.25,0,7.12,2.73,7.12,6.64s-2.87,6.64-7.12,6.64H1091Zm5.33,12.07c3.53,0,5.81-2.24,5.81-5.43s-2.28-5.43-5.81-5.43h-3.93V199Z"/><path class="cls-65" d="M1131.39,196.66H1124l-1.59,3.55h-1.46l6.07-13.29h1.38l6.07,13.29H1133Zm-.51-1.14-3.19-7.13-3.19,7.13Z"/><path class="cls-66" d="M1142,194.53v-7.61h1.4v7.55c0,3.15,1.48,4.59,4.06,4.59s4.08-1.44,4.08-4.59v-7.55h1.37v7.61c0,3.81-2,5.79-5.45,5.79S1142,198.35,1142,194.53Z"/><path class="cls-67" d="M1165.12,188.14h-4.67v-1.21h10.74v1.21h-4.67v12.07h-1.41Z"/><path class="cls-68" d="M1190.23,186.92v13.29h-1.39v-6.13h-8.31v6.13h-1.41V186.92h1.41v5.92h8.31v-5.92Z"/><path class="cls-69" d="M1209.65,199v1.21h-9.4V186.92h9.11v1.21h-7.71v4.73h6.87v1.2h-6.87V199Z"/><path class="cls-70" d="M1229.75,186.92v13.29h-1.16l-8.54-10.78v10.78h-1.41V186.92h1.16l8.56,10.78V186.92Z"/><path class="cls-71" d="M1242.35,188.14h-4.67v-1.21h10.74v1.21h-4.67v12.07h-1.41Z"/><path class="cls-72" d="M1256.36,186.92h1.41v13.29h-1.41Z"/><path class="cls-73" d="M1266.61,193.57a6.67,6.67,0,0,1,7-6.76,6.43,6.43,0,0,1,4.86,1.94l-.89.89a5.27,5.27,0,0,0-3.93-1.58,5.51,5.51,0,1,0,0,11,5.22,5.22,0,0,0,3.93-1.59l.89.89a6.46,6.46,0,0,1-4.88,2A6.67,6.67,0,0,1,1266.61,193.57Z"/><path class="cls-74" d="M1306.87,200.21l-3-4.27a9.2,9.2,0,0,1-1.06.06h-3.57v4.21h-1.41V186.92h5c3.38,0,5.43,1.71,5.43,4.56a4.12,4.12,0,0,1-3,4.17l3.25,4.56Zm-.08-8.73c0-2.13-1.4-3.34-4.06-3.34h-3.53v6.66h3.53C1305.39,194.8,1306.79,193.57,1306.79,191.48Z"/><path class="cls-75" d="M1326.61,199v1.21h-9.4V186.92h9.11v1.21h-7.71v4.73h6.87v1.2h-6.87V199Z"/><path class="cls-76" d="M1335.6,186.92H1337V199h7.44v1.21h-8.85Z"/><path class="cls-77" d="M1360.85,196.66h-7.4l-1.59,3.55h-1.46l6.07-13.29h1.38l6.07,13.29h-1.48Zm-.51-1.14-3.19-7.13-3.19,7.13Z"/><path class="cls-78" d="M1373.73,188.14h-4.67v-1.21h10.74v1.21h-4.67v12.07h-1.41Z"/><path class="cls-79" d="M1387.74,186.92h1.41v13.29h-1.41Z"/><path class="cls-80" d="M1398,193.57a7,7,0,1,1,7,6.76A6.69,6.69,0,0,1,1398,193.57Zm12.54,0a5.58,5.58,0,1,0-5.56,5.5A5.38,5.38,0,0,0,1410.54,193.57Z"/><path class="cls-81" d="M1431.89,186.92v13.29h-1.16l-8.54-10.78v10.78h-1.41V186.92h1.16l8.56,10.78V186.92Z"/><path class="cls-82" d="M1440.64,198.59l.55-1.08a6.53,6.53,0,0,0,4.39,1.61c2.48,0,3.57-1,3.57-2.35,0-3.64-8.18-1.41-8.18-6.32,0-2,1.52-3.64,4.9-3.64A7.5,7.5,0,0,1,1450,188l-.47,1.12a6.83,6.83,0,0,0-3.64-1.1c-2.43,0-3.51,1.08-3.51,2.41,0,3.64,8.18,1.44,8.18,6.28,0,2-1.56,3.63-5,3.63A7.2,7.2,0,0,1,1440.64,198.59Z"/><path class="cls-83" d="M1470.38,186.92v13.29H1469v-6.13h-8.31v6.13h-1.41V186.92h1.41v5.92H1469v-5.92Z"/><path class="cls-84" d="M1480.41,186.92h1.41v13.29h-1.41Z"/><path class="cls-85" d="M1502.23,191.48c0,2.83-2.05,4.54-5.43,4.54h-3.57v4.2h-1.41V186.92h5C1500.18,186.92,1502.23,188.63,1502.23,191.48Zm-1.41,0c0-2.13-1.4-3.34-4.06-3.34h-3.53v6.64h3.53C1499.43,194.78,1500.83,193.57,1500.83,191.48Z"/><path class="cls-86" d="M1509.88,198.59l.55-1.08a6.53,6.53,0,0,0,4.39,1.61c2.48,0,3.57-1,3.57-2.35,0-3.64-8.18-1.41-8.18-6.32,0-2,1.52-3.64,4.9-3.64a7.5,7.5,0,0,1,4.12,1.18l-.47,1.12a6.83,6.83,0,0,0-3.64-1.1c-2.43,0-3.51,1.08-3.51,2.41,0,3.64,8.18,1.44,8.18,6.28,0,2-1.56,3.63-5,3.63A7.2,7.2,0,0,1,1509.88,198.59Z"/></svg>