<svg id="Layer_1" data-name="Layer 1" xmlns="http://www.w3.org/2000/svg" xmlns:xlink="http://www.w3.org/1999/xlink" viewBox="0 0 202.19 205"><defs><style>.cls-1{fill:url(#linear-gradient);}.cls-2{fill:url(#linear-gradient-2);}.cls-3{fill:url(#linear-gradient-3);}.cls-4{fill:url(#linear-gradient-4);}.cls-5{fill:url(#linear-gradient-5);}</style><linearGradient id="linear-gradient" x1="73.41" y1="-13.24" x2="76.42" y2="164.67" gradientUnits="userSpaceOnUse"><stop offset="0" stop-color="#f6871f"/><stop offset="1" stop-color="#ed193e"/></linearGradient><linearGradient id="linear-gradient-2" x1="128.62" y1="-14.17" x2="131.62" y2="163.74" xlink:href="#linear-gradient"/><linearGradient id="linear-gradient-3" x1="102.55" y1="-13.73" x2="105.55" y2="164.18" xlink:href="#linear-gradient"/><linearGradient id="linear-gradient-4" x1="99.15" y1="-13.68" x2="102.16" y2="164.24" xlink:href="#linear-gradient"/><linearGradient id="linear-gradient-5" x1="150.31" y1="-14.54" x2="153.31" y2="163.37" xlink:href="#linear-gradient"/></defs><title>Ashroe-Illustrator</title><path class="cls-1" d="M102.9,95.28l-.09-.72a109,109,0,0,0-2.76-14.64A107.86,107.86,0,0,0,87.89,51q-2.06-3.38-4.35-6.61t-4.87-6.25A101.27,101.27,0,0,0,67.56,26.79a102.38,102.38,0,0,0-12.17-9.12,93.36,93.36,0,0,0-9.56,5.91A109.33,109.33,0,0,1,61,34.41a113.69,113.69,0,0,1,10.4,10q2.43,2.69,4.69,5.53c1.5,1.9,3,3.83,4.34,5.82a103.47,103.47,0,0,1,13.09,26,101.4,101.4,0,0,1,3.6,14.27,104.41,104.41,0,0,1,1.45,14.71,106,106,0,0,1-9.86,47.38c-.39,1-.91,1.84-1.36,2.76l-1.41,2.74c-1,1.8-2.08,3.54-3.11,5.31s-2.28,3.42-3.43,5.13-2.51,3.27-3.75,4.91-2.7,3.12-4,4.69-2.9,2.94-4.35,4.41c-1,.91-2,1.81-3,2.7l.25.1c1-.85,2-1.69,3-2.56,1.49-1.44,3-2.85,4.48-4.31s2.87-3,4.26-4.53,2.7-3.16,4-4.78,2.54-3.3,3.75-5,2.36-3.43,3.46-5.21l1.6-2.69c.52-.9,1.11-1.78,1.57-2.72a105.71,105.71,0,0,0,9.39-23.3,103.84,103.84,0,0,0,2.94-15.33q.56-4.83.69-9.7A110.75,110.75,0,0,0,102.9,95.28Z"/><path class="cls-2" d="M114,152.85a102.51,102.51,0,0,1-6.4-52.49,103.84,103.84,0,0,1,2.6-12.95c.64-2.11,1.23-4.22,1.89-6.31L114.42,75c.86-2,1.82-4,2.71-6,.42-1,1-1.94,1.51-2.9l1.57-2.87.77-1.44.88-1.39,1.75-2.76c1.1-1.87,2.48-3.57,3.74-5.34a106.88,106.88,0,0,1,30.49-27.6c-1.42-1-2.86-2-4.31-2.94l-.79-.51-1.14-.73-2.19-1.3c-.26-.16-.52-.31-.79-.47a107.43,107.43,0,0,0-28.34,28.53c-1.29,2-2.65,3.89-3.75,6l-1.74,3.08-.86,1.53-.76,1.6-1.5,3.19c-.49,1.07-1,2.11-1.42,3.22-.83,2.19-1.71,4.37-2.49,6.58a103.17,103.17,0,0,0-4.93,22.1q-.3,2.64-.47,5.28a107.64,107.64,0,0,0,.58,20.68,109.94,109.94,0,0,0,9.48,33A112.83,112.83,0,0,0,140,190.06l.17-.07A102.07,102.07,0,0,1,114,152.85Z"/><circle class="cls-3" cx="103.26" cy="28.74" r="17.5"/><path class="cls-4" d="M101.09,0a101.09,101.09,0,1,0,32.33,196.9q4.22-1.42,8.26-3.2A101.17,101.17,0,0,0,176.84,168c2-2.24,3.87-4.57,5.64-7A101.1,101.1,0,0,0,101.09,0Zm80.4,151.21a91.45,91.45,0,0,1-5.54,8,95.08,95.08,0,0,1-42.27,30.93,91.48,91.48,0,0,1-9.09,2.82,94.94,94.94,0,1,1,56.9-41.71Z"/><path class="cls-5" d="M178.07,205l-44.64-8.1-8.83-4a91.48,91.48,0,0,0,9.09-2.82l8,3.61A101.17,101.17,0,0,0,176.84,168l-.89-8.87a91.45,91.45,0,0,0,5.54-8l1,9.85Z"/></svg>